<svg xmlns="http://www.w3.org/2000/svg" xmlns:xlink="http://www.w3.org/1999/xlink" version="1.1" width="256" height="256" viewBox="0 0 256 256" xml:space="preserve">
<desc>Created with Fabric.js 1.7.22</desc>
<defs>
</defs>
<g transform="translate(128 128) scale(0.72 0.72)" style="">
	<g style="stroke: none; stroke-width: 0; stroke-dasharray: none; stroke-linecap: butt; stroke-linejoin: miter; stroke-miterlimit: 10; fill: none; fill-rule: nonzero; opacity: 1;" transform="translate(-175.05 -175.05000000000004) scale(3.89 3.89)" >
	<path d="M 6.528 90 c -0.52 0 -1.018 -0.273 -1.289 -0.748 c -0.363 -0.636 -0.208 -1.441 0.365 -1.897 l 35.553 -28.295 L 3.864 37.307 c -0.473 -0.276 -0.755 -0.79 -0.735 -1.336 c 0.02 -0.547 0.34 -1.038 0.832 -1.278 L 74.675 0.151 c 0.655 -0.32 1.443 -0.117 1.862 0.476 c 0.42 0.594 0.348 1.405 -0.171 1.915 L 45.106 33.27 l 41.027 23.774 c 0.495 0.287 0.78 0.832 0.735 1.401 c -0.045 0.57 -0.414 1.063 -0.948 1.267 L 7.057 89.901 C 6.884 89.968 6.704 90 6.528 90 z M 7.754 36.141 l 36.77 21.449 c 0.423 0.247 0.697 0.687 0.732 1.174 c 0.035 0.489 -0.173 0.963 -0.556 1.268 L 14.963 83.699 l 66.993 -25.646 L 41.934 34.861 c -0.401 -0.232 -0.67 -0.638 -0.728 -1.097 c -0.058 -0.46 0.102 -0.92 0.432 -1.244 L 67.781 6.82 L 7.754 36.141 z" style="stroke: none; stroke-width: 1; stroke-dasharray: none; stroke-linecap: butt; stroke-linejoin: miter; stroke-miterlimit: 10; fill: rgb(0,0,0); fill-rule: nonzero; opacity: 1;" transform=" matrix(1 0 0 1 0 0) " stroke-linecap="round" />
</g>
</g>
</svg>